<svg width="21" height="21" viewBox="0 0 21 21" fill="none" xmlns="http://www.w3.org/2000/svg">
<path d="M4.74941 20.6816H0.602086V7.24551H4.74941V20.6816ZM2.67351 5.4127C1.34762 5.4127 0.271729 4.30762 0.271729 2.97344C0.271729 2.33246 0.524773 1.71774 0.975195 1.2645C1.42562 0.811267 2.03652 0.556641 2.67351 0.556641C3.31051 0.556641 3.92141 0.811267 4.37183 1.2645C4.82226 1.71774 5.0753 2.33246 5.0753 2.97344C5.0753 4.30762 3.99941 5.4127 2.67351 5.4127ZM20.2673 20.6816H16.1289V14.141C16.1289 12.5822 16.0976 10.5832 13.9726 10.5832C11.8164 10.5832 11.486 12.2768 11.486 14.0287V20.6816H7.34316V7.24551H11.3208V9.07832H11.3789C11.9324 8.02266 13.2851 6.90859 15.303 6.90859C19.4994 6.90859 20.2717 9.68926 20.2717 13.301V20.6816H20.2673Z" fill="black"/>
</svg>
