<svg width="172" height="36" viewBox="0 0 172 36" fill="none" xmlns="http://www.w3.org/2000/svg">
<path d="M34.257 17.5165L29.1382 5.13867H18.6248L23.9012 17.5568L18.546 29.975H29.1382L34.257 17.5165Z" fill="black"/>
<path d="M0 17.5165L5.11887 5.13867H15.6322L10.3559 17.5568L15.711 29.975H5.11887L0 17.5165Z" fill="black"/>
<path d="M11.7734 20.8522L18.6248 5.13867L22.5522 14.382L15.711 29.975L11.7734 20.8522Z" fill="black"/>
<path d="M52.3746 6.68217C52.3259 6.19151 52.1171 5.81034 51.7481 5.53865C51.3791 5.26696 50.8783 5.13112 50.2457 5.13112C49.8159 5.13112 49.4529 5.19195 49.1569 5.3136C48.8609 5.43119 48.6338 5.59542 48.4757 5.80628C48.3216 6.01715 48.2445 6.2564 48.2445 6.52403C48.2364 6.74706 48.2831 6.9417 48.3844 7.10795C48.4899 7.27421 48.6338 7.41817 48.8163 7.53982C48.9988 7.65741 49.2096 7.76082 49.4489 7.85003C49.6881 7.93518 49.9436 8.00817 50.2153 8.069L51.3345 8.33663C51.8779 8.45828 52.3766 8.62049 52.8308 8.82324C53.285 9.02599 53.6783 9.27538 54.0108 9.57139C54.3433 9.86741 54.6008 10.2161 54.7833 10.6176C54.9698 11.019 55.0651 11.4793 55.0692 11.9983C55.0651 12.7607 54.8705 13.4217 54.4853 13.9813C54.1041 14.5368 53.5526 14.9687 52.8308 15.2768C52.1131 15.581 51.2473 15.733 50.2335 15.733C49.2279 15.733 48.352 15.5789 47.6059 15.2708C46.8638 14.9626 46.2839 14.5064 45.8663 13.9022C45.4526 13.2939 45.2357 12.5417 45.2154 11.6455H47.764C47.7924 12.0632 47.912 12.412 48.1229 12.6918C48.3378 12.9675 48.6237 13.1763 48.9805 13.3183C49.3414 13.4561 49.749 13.5251 50.2031 13.5251C50.6492 13.5251 51.0364 13.4602 51.3649 13.3304C51.6974 13.2007 51.9549 13.0202 52.1374 12.7891C52.3199 12.5579 52.4111 12.2923 52.4111 11.9923C52.4111 11.7125 52.328 11.4773 52.1617 11.2867C51.9995 11.0961 51.7603 10.9339 51.444 10.8001C51.1317 10.6663 50.7485 10.5446 50.2944 10.4351L48.938 10.0945C47.8877 9.83903 47.0584 9.43961 46.4502 8.89623C45.8419 8.35285 45.5398 7.62092 45.5439 6.70042C45.5398 5.94618 45.7406 5.28724 46.1461 4.72359C46.5556 4.15994 47.1172 3.71996 47.8309 3.40367C48.5446 3.08738 49.3556 2.92923 50.264 2.92923C51.1885 2.92923 51.9955 3.08738 52.6848 3.40367C53.3782 3.71996 53.9176 4.15994 54.3028 4.72359C54.688 5.28724 54.8867 5.9401 54.8989 6.68217H52.3746ZM61.7615 6.21382V8.16024H56.1352V6.21382H61.7615ZM57.4125 3.97543H60.0037V12.6857C60.0037 12.9249 60.0402 13.1114 60.1132 13.2453C60.1861 13.375 60.2875 13.4663 60.4173 13.519C60.5511 13.5717 60.7052 13.5981 60.8796 13.5981C61.0012 13.5981 61.1229 13.5879 61.2445 13.5676C61.3662 13.5433 61.4594 13.5251 61.5243 13.5129L61.9318 15.4411C61.8021 15.4816 61.6196 15.5283 61.3844 15.581C61.1492 15.6377 60.8633 15.6722 60.5268 15.6844C59.9023 15.7087 59.3549 15.6256 58.8845 15.435C58.4181 15.2444 58.0552 14.9484 57.7957 14.5469C57.5362 14.1455 57.4084 13.6386 57.4125 13.0263V3.97543ZM69.4408 11.5786V6.21382H72.0319V15.5566H69.5442V13.8596H69.4469C69.236 14.407 68.8852 14.847 68.3946 15.1795C67.908 15.512 67.3139 15.6783 66.6124 15.6783C65.9879 15.6783 65.4384 15.5364 64.964 15.2525C64.4896 14.9687 64.1185 14.5652 63.8509 14.0421C63.5873 13.519 63.4535 12.8925 63.4494 12.1626V6.21382H66.0406V11.7003C66.0447 12.2518 66.1927 12.6877 66.4846 13.008C66.7766 13.3284 67.1679 13.4886 67.6586 13.4886C67.9708 13.4886 68.2628 13.4176 68.5345 13.2757C68.8062 13.1297 69.0251 12.9148 69.1914 12.6309C69.3617 12.3471 69.4448 11.9963 69.4408 11.5786ZM77.5473 15.7087C76.8377 15.7087 76.195 15.5262 75.6191 15.1613C75.0474 14.7923 74.5932 14.2509 74.2566 13.5372C73.9241 12.8195 73.7579 11.9395 73.7579 10.8974C73.7579 9.82686 73.9302 8.93678 74.2749 8.22715C74.6196 7.51346 75.0778 6.98022 75.6496 6.62743C76.2254 6.27059 76.8559 6.09217 77.5412 6.09217C78.0643 6.09217 78.5002 6.18138 78.849 6.3598C79.2018 6.53417 79.4856 6.75314 79.7005 7.01672C79.9195 7.27624 80.0858 7.53171 80.1993 7.78312H80.2784V3.09954H82.8635V15.5566H80.3088V14.0603H80.1993C80.0777 14.3199 79.9053 14.5773 79.6823 14.8328C79.4633 15.0842 79.1774 15.2931 78.8247 15.4593C78.4759 15.6256 78.0501 15.7087 77.5473 15.7087ZM78.3685 13.6467C78.7861 13.6467 79.1389 13.5332 79.4268 13.3061C79.7188 13.075 79.9418 12.7526 80.0959 12.339C80.2541 11.9253 80.3331 11.4408 80.3331 10.8852C80.3331 10.3297 80.2561 9.84714 80.102 9.43758C79.9479 9.02802 79.7249 8.71172 79.4329 8.4887C79.1409 8.26567 78.7861 8.15416 78.3685 8.15416C77.9427 8.15416 77.5838 8.26972 77.2918 8.50086C76.9999 8.732 76.7789 9.05235 76.6288 9.46191C76.4788 9.87147 76.4038 10.3459 76.4038 10.8852C76.4038 11.4286 76.4788 11.9091 76.6288 12.3268C76.7829 12.7404 77.0039 13.0648 77.2918 13.3C77.5838 13.5311 77.9427 13.6467 78.3685 13.6467ZM89.2517 15.7391C88.2906 15.7391 87.4634 15.5445 86.77 15.1552C86.0807 14.7619 85.5494 14.2063 85.1764 13.4886C84.8033 12.7668 84.6168 11.9132 84.6168 10.9278C84.6168 9.96676 84.8033 9.12331 85.1764 8.39746C85.5494 7.67161 86.0746 7.10593 86.7518 6.70042C87.433 6.29492 88.2319 6.09217 89.1483 6.09217C89.7647 6.09217 90.3384 6.19151 90.8697 6.39021C91.4049 6.58485 91.8713 6.87884 92.2686 7.27218C92.6701 7.66552 92.9823 8.16024 93.2054 8.75633C93.4284 9.34837 93.5399 10.0418 93.5399 10.8366V11.5482H85.6508V9.94243H91.1008C91.1008 9.56937 91.0197 9.23888 90.8575 8.95097C90.6953 8.66306 90.4702 8.43801 90.1823 8.27581C89.8985 8.10955 89.568 8.02642 89.1909 8.02642C88.7975 8.02642 88.4488 8.11766 88.1447 8.30014C87.8446 8.47856 87.6094 8.71983 87.4391 9.02396C87.2688 9.32404 87.1816 9.65858 87.1775 10.0276V11.5543C87.1775 12.0166 87.2627 12.416 87.433 12.7526C87.6074 13.0891 87.8527 13.3487 88.169 13.5311C88.4853 13.7136 88.8604 13.8049 89.2943 13.8049C89.5822 13.8049 89.8458 13.7643 90.085 13.6832C90.3243 13.6021 90.529 13.4805 90.6993 13.3183C90.8697 13.1561 90.9994 12.9574 91.0886 12.7222L93.4852 12.8803C93.3635 13.4561 93.1141 13.959 92.737 14.3888C92.3639 14.8146 91.8814 15.1471 91.2894 15.3863C90.7014 15.6215 90.0222 15.7391 89.2517 15.7391ZM97.822 10.1553V15.5566H95.2309V6.21382H97.7004V7.86219H97.8099C98.0167 7.31882 98.3634 6.88898 98.85 6.57269C99.3366 6.25234 99.9266 6.09217 100.62 6.09217C101.269 6.09217 101.834 6.23409 102.317 6.51795C102.8 6.8018 103.175 7.2073 103.442 7.73446C103.71 8.25756 103.844 8.88204 103.844 9.60789V15.5566H101.253V10.0702C101.257 9.4984 101.111 9.05235 100.815 8.732C100.519 8.4076 100.111 8.24539 99.5921 8.24539C99.2433 8.24539 98.9351 8.32041 98.6675 8.47045C98.4039 8.62049 98.1971 8.83946 98.0471 9.12737C97.9011 9.41122 97.8261 9.75387 97.822 10.1553ZM110.855 6.21382V8.16024H105.229V6.21382H110.855ZM106.506 3.97543H109.098V12.6857C109.098 12.9249 109.134 13.1114 109.207 13.2453C109.28 13.375 109.381 13.4663 109.511 13.519C109.645 13.5717 109.799 13.5981 109.973 13.5981C110.095 13.5981 110.217 13.5879 110.338 13.5676C110.46 13.5433 110.553 13.5251 110.618 13.5129L111.026 15.4411C110.896 15.4816 110.714 15.5283 110.478 15.581C110.243 15.6377 109.957 15.6722 109.621 15.6844C108.996 15.7087 108.449 15.6256 107.978 15.435C107.512 15.2444 107.149 14.9484 106.89 14.5469C106.63 14.1455 106.502 13.6386 106.506 13.0263V3.97543ZM120.2 8.87798L117.828 9.02396C117.787 8.82121 117.7 8.63873 117.566 8.47653C117.432 8.31028 117.256 8.17849 117.037 8.08116C116.822 7.97979 116.564 7.9291 116.264 7.9291C115.863 7.9291 115.524 8.01426 115.249 8.18457C114.973 8.35083 114.835 8.57385 114.835 8.85365C114.835 9.07668 114.924 9.26524 115.103 9.41933C115.281 9.57342 115.587 9.6971 116.021 9.79037L117.712 10.131C118.62 10.3175 119.298 10.6176 119.744 11.0312C120.19 11.4448 120.413 11.9882 120.413 12.6613C120.413 13.2737 120.232 13.8109 119.871 14.2732C119.514 14.7355 119.024 15.0964 118.399 15.3559C117.779 15.6114 117.063 15.7391 116.252 15.7391C115.015 15.7391 114.03 15.4816 113.296 14.9666C112.566 14.4476 112.138 13.742 112.013 12.8499L114.561 12.7161C114.638 13.0932 114.825 13.3811 115.121 13.5798C115.417 13.7744 115.796 13.8718 116.258 13.8718C116.712 13.8718 117.077 13.7846 117.353 13.6102C117.633 13.4318 117.775 13.2027 117.779 12.9229C117.775 12.6877 117.676 12.4951 117.481 12.345C117.286 12.191 116.986 12.0734 116.581 11.9923L114.963 11.6699C114.05 11.4874 113.371 11.1711 112.925 10.721C112.483 10.2709 112.262 9.6971 112.262 8.99963C112.262 8.39949 112.424 7.88247 112.749 7.44858C113.077 7.01469 113.537 6.68015 114.129 6.44495C114.725 6.20976 115.423 6.09217 116.222 6.09217C117.402 6.09217 118.33 6.34155 119.008 6.84032C119.689 7.33909 120.086 8.01831 120.2 8.87798ZM124.216 3.09954V4.41338C124.216 4.78644 124.143 5.16762 123.997 5.5569C123.855 5.94213 123.664 6.30708 123.425 6.65176C123.186 6.99239 122.924 7.28232 122.64 7.52157L121.497 6.8464C121.7 6.52606 121.878 6.17124 122.032 5.78195C122.19 5.39267 122.269 4.94053 122.269 4.42554V3.09954H124.216ZM132.759 15.5566L129.194 3.09954H132.071L134.133 11.755H134.237L136.512 3.09954H138.975L141.244 11.7733H141.353L143.415 3.09954H146.292L142.728 15.5566H140.161L137.789 7.41208H137.692L135.326 15.5566H132.759ZM150.908 15.7391C149.947 15.7391 149.119 15.5445 148.426 15.1552C147.737 14.7619 147.205 14.2063 146.832 13.4886C146.459 12.7668 146.273 11.9132 146.273 10.9278C146.273 9.96676 146.459 9.12331 146.832 8.39746C147.205 7.67161 147.731 7.10593 148.408 6.70042C149.089 6.29492 149.888 6.09217 150.804 6.09217C151.421 6.09217 151.994 6.19151 152.526 6.39021C153.061 6.58485 153.527 6.87884 153.925 7.27218C154.326 7.66552 154.638 8.16024 154.861 8.75633C155.084 9.34837 155.196 10.0418 155.196 10.8366V11.5482H147.307V9.94243H152.757C152.757 9.56937 152.676 9.23888 152.513 8.95097C152.351 8.66306 152.126 8.43801 151.838 8.27581C151.554 8.10955 151.224 8.02642 150.847 8.02642C150.453 8.02642 150.105 8.11766 149.801 8.30014C149.501 8.47856 149.265 8.71983 149.095 9.02396C148.925 9.32404 148.838 9.65858 148.833 10.0276V11.5543C148.833 12.0166 148.919 12.416 149.089 12.7526C149.263 13.0891 149.509 13.3487 149.825 13.5311C150.141 13.7136 150.516 13.8049 150.95 13.8049C151.238 13.8049 151.502 13.7643 151.741 13.6832C151.98 13.6021 152.185 13.4805 152.355 13.3183C152.526 13.1561 152.655 12.9574 152.745 12.7222L155.141 12.8803C155.019 13.4561 154.77 13.959 154.393 14.3888C154.02 14.8146 153.537 15.1471 152.945 15.3863C152.357 15.6215 151.678 15.7391 150.908 15.7391ZM156.935 15.5566V3.09954H159.527V7.78312H159.606C159.719 7.53171 159.883 7.27624 160.098 7.01672C160.317 6.75314 160.601 6.53417 160.95 6.3598C161.303 6.18138 161.741 6.09217 162.264 6.09217C162.945 6.09217 163.574 6.27059 164.149 6.62743C164.725 6.98022 165.185 7.51346 165.53 8.22715C165.875 8.93678 166.047 9.82686 166.047 10.8974C166.047 11.9395 165.879 12.8195 165.542 13.5372C165.21 14.2509 164.756 14.7923 164.18 15.1613C163.608 15.5262 162.967 15.7087 162.258 15.7087C161.755 15.7087 161.327 15.6256 160.974 15.4593C160.626 15.2931 160.34 15.0842 160.117 14.8328C159.894 14.5773 159.723 14.3199 159.606 14.0603H159.49V15.5566H156.935ZM159.472 10.8852C159.472 11.4408 159.549 11.9253 159.703 12.339C159.857 12.7526 160.08 13.075 160.372 13.3061C160.664 13.5332 161.019 13.6467 161.437 13.6467C161.858 13.6467 162.215 13.5311 162.507 13.3C162.799 13.0648 163.02 12.7404 163.17 12.3268C163.324 11.9091 163.401 11.4286 163.401 10.8852C163.401 10.3459 163.326 9.87147 163.176 9.46191C163.026 9.05235 162.805 8.732 162.513 8.50086C162.221 8.26972 161.862 8.15416 161.437 8.15416C161.015 8.15416 160.658 8.26567 160.366 8.4887C160.078 8.71172 159.857 9.02802 159.703 9.43758C159.549 9.84714 159.472 10.3297 159.472 10.8852ZM56.6081 23.4607H53.9439C53.8953 23.1161 53.7959 22.8099 53.6459 22.5423C53.4958 22.2706 53.3032 22.0394 53.068 21.8489C52.8328 21.6583 52.5611 21.5123 52.253 21.4109C51.9488 21.3095 51.6183 21.2589 51.2615 21.2589C50.6167 21.2589 50.0551 21.419 49.5766 21.7394C49.0981 22.0557 48.7271 22.5179 48.4635 23.1262C48.1999 23.7304 48.0682 24.4644 48.0682 25.3281C48.0682 26.2161 48.1999 26.9623 48.4635 27.5665C48.7312 28.1707 49.1042 28.6269 49.5827 28.9351C50.0612 29.2432 50.6147 29.3973 51.2433 29.3973C51.596 29.3973 51.9225 29.3507 52.2225 29.2574C52.5267 29.1642 52.7963 29.0283 53.0315 28.8499C53.2667 28.6674 53.4614 28.4464 53.6155 28.1869C53.7736 27.9274 53.8831 27.6314 53.9439 27.2988L56.6081 27.311C56.5391 27.8828 56.3668 28.4343 56.0911 28.9655C55.8194 29.4926 55.4524 29.965 54.9901 30.3827C54.5319 30.7963 53.9845 31.1248 53.3478 31.3681C52.7152 31.6073 51.9995 31.727 51.2007 31.727C50.0896 31.727 49.0961 31.4755 48.2202 30.9727C47.3484 30.4699 46.659 29.742 46.1521 28.7891C45.6493 27.8361 45.3979 26.6825 45.3979 25.3281C45.3979 23.9697 45.6534 22.814 46.1643 21.861C46.6752 20.9081 47.3687 20.1822 48.2445 19.6835C49.1204 19.1806 50.1058 18.9292 51.2007 18.9292C51.9225 18.9292 52.5916 19.0306 53.2079 19.2334C53.8283 19.4361 54.3778 19.7321 54.8563 20.1214C55.3348 20.5066 55.7241 20.9791 56.0241 21.5387C56.3283 22.0982 56.5229 22.7389 56.6081 23.4607ZM62.6694 31.7391C61.7245 31.7391 60.9074 31.5384 60.2181 31.1369C59.5328 30.7314 59.0036 30.1678 58.6305 29.446C58.2575 28.7201 58.0709 27.8787 58.0709 26.9217C58.0709 25.9566 58.2575 25.1132 58.6305 24.3914C59.0036 23.6655 59.5328 23.1019 60.2181 22.7004C60.9074 22.2949 61.7245 22.0922 62.6694 22.0922C63.6142 22.0922 64.4292 22.2949 65.1145 22.7004C65.8039 23.1019 66.3351 23.6655 66.7082 24.3914C67.0812 25.1132 67.2678 25.9566 67.2678 26.9217C67.2678 27.8787 67.0812 28.7201 66.7082 29.446C66.3351 30.1678 65.8039 30.7314 65.1145 31.1369C64.4292 31.5384 63.6142 31.7391 62.6694 31.7391ZM62.6815 29.7319C63.1114 29.7319 63.4702 29.6102 63.7581 29.3669C64.046 29.1196 64.263 28.783 64.409 28.3572C64.559 27.9314 64.634 27.4469 64.634 26.9035C64.634 26.3601 64.559 25.8755 64.409 25.4497C64.263 25.024 64.046 24.6874 63.7581 24.44C63.4702 24.1927 63.1114 24.069 62.6815 24.069C62.2476 24.069 61.8827 24.1927 61.5867 24.44C61.2947 24.6874 61.0737 25.024 60.9237 25.4497C60.7777 25.8755 60.7047 26.3601 60.7047 26.9035C60.7047 27.4469 60.7777 27.9314 60.9237 28.3572C61.0737 28.783 61.2947 29.1196 61.5867 29.3669C61.8827 29.6102 62.2476 29.7319 62.6815 29.7319ZM68.9526 31.5566V22.2138H71.4222V23.8622H71.5317C71.7263 23.3148 72.0507 22.8829 72.5049 22.5666C72.959 22.2503 73.5024 22.0922 74.135 22.0922C74.7757 22.0922 75.3211 22.2523 75.7712 22.5727C76.2213 22.889 76.5214 23.3188 76.6714 23.8622H76.7687C76.9593 23.3269 77.304 22.8991 77.8028 22.5788C78.3056 22.2544 78.8997 22.0922 79.585 22.0922C80.4568 22.0922 81.1644 22.3699 81.7078 22.9255C82.2552 23.477 82.5289 24.2596 82.5289 25.2733V31.5566H79.9438V25.7843C79.9438 25.2652 79.806 24.876 79.5302 24.6164C79.2545 24.3569 78.9098 24.2271 78.4962 24.2271C78.0258 24.2271 77.6588 24.3772 77.3952 24.6773C77.1317 24.9733 76.9999 25.3646 76.9999 25.8512V31.5566H74.4878V25.7295C74.4878 25.2713 74.356 24.9064 74.0924 24.6347C73.8329 24.363 73.4902 24.2271 73.0645 24.2271C72.7766 24.2271 72.517 24.3001 72.2859 24.4461C72.0588 24.588 71.8784 24.7888 71.7445 25.0483C71.6107 25.3038 71.5438 25.6038 71.5438 25.9485V31.5566H68.9526ZM84.5757 31.5566V22.2138H87.0452V23.8622H87.1547C87.3494 23.3148 87.6738 22.8829 88.1279 22.5666C88.5821 22.2503 89.1255 22.0922 89.7581 22.0922C90.3988 22.0922 90.9442 22.2523 91.3943 22.5727C91.8444 22.889 92.1445 23.3188 92.2945 23.8622H92.3918C92.5824 23.3269 92.9271 22.8991 93.4259 22.5788C93.9287 22.2544 94.5227 22.0922 95.208 22.0922C96.0799 22.0922 96.7875 22.3699 97.3309 22.9255C97.8783 23.477 98.152 24.2596 98.152 25.2733V31.5566H95.5669V25.7843C95.5669 25.2652 95.429 24.876 95.1533 24.6164C94.8776 24.3569 94.5329 24.2271 94.1193 24.2271C93.6489 24.2271 93.2819 24.3772 93.0183 24.6773C92.7547 24.9733 92.623 25.3646 92.623 25.8512V31.5566H90.1109V25.7295C90.1109 25.2713 89.9791 24.9064 89.7155 24.6347C89.456 24.363 89.1133 24.2271 88.6875 24.2271C88.3996 24.2271 88.1401 24.3001 87.909 24.4461C87.6819 24.588 87.5014 24.7888 87.3676 25.0483C87.2338 25.3038 87.1669 25.6038 87.1669 25.9485V31.5566H84.5757ZM100.199 31.5566V22.2138H102.79V31.5566H100.199ZM101.5 21.0095C101.115 21.0095 100.785 20.8817 100.509 20.6263C100.237 20.3667 100.101 20.0565 100.101 19.6956C100.101 19.3388 100.237 19.0326 100.509 18.7772C100.785 18.5176 101.115 18.3879 101.5 18.3879C101.886 18.3879 102.214 18.5176 102.486 18.7772C102.762 19.0326 102.899 19.3388 102.899 19.6956C102.899 20.0565 102.762 20.3667 102.486 20.6263C102.214 20.8817 101.886 21.0095 101.5 21.0095ZM109.835 22.2138V24.1602H104.209V22.2138H109.835ZM105.486 19.9754H108.077V28.6857C108.077 28.9249 108.114 29.1114 108.187 29.2453C108.26 29.375 108.361 29.4663 108.491 29.519C108.625 29.5717 108.779 29.5981 108.953 29.5981C109.075 29.5981 109.196 29.5879 109.318 29.5676C109.44 29.5433 109.533 29.5251 109.598 29.5129L110.005 31.4411C109.876 31.4816 109.693 31.5283 109.458 31.581C109.223 31.6377 108.937 31.6722 108.6 31.6844C107.976 31.7087 107.428 31.6256 106.958 31.435C106.492 31.2444 106.129 30.9484 105.869 30.5469C105.61 30.1455 105.482 29.6386 105.486 29.0263V19.9754ZM116.492 22.2138V24.1602H110.866V22.2138H116.492ZM112.143 19.9754H114.735V28.6857C114.735 28.9249 114.771 29.1114 114.844 29.2453C114.917 29.375 115.018 29.4663 115.148 29.519C115.282 29.5717 115.436 29.5981 115.61 29.5981C115.732 29.5981 115.854 29.5879 115.975 29.5676C116.097 29.5433 116.19 29.5251 116.255 29.5129L116.663 31.4411C116.533 31.4816 116.351 31.5283 116.115 31.581C115.88 31.6377 115.594 31.6722 115.258 31.6844C114.633 31.7087 114.086 31.6256 113.615 31.435C113.149 31.2444 112.786 30.9484 112.527 30.5469C112.267 30.1455 112.139 29.6386 112.143 29.0263V19.9754ZM122.338 31.7391C121.377 31.7391 120.55 31.5445 119.856 31.1552C119.167 30.7619 118.636 30.2063 118.263 29.4886C117.889 28.7668 117.703 27.9132 117.703 26.9278C117.703 25.9668 117.889 25.1233 118.263 24.3975C118.636 23.6716 119.161 23.1059 119.838 22.7004C120.519 22.2949 121.318 22.0922 122.234 22.0922C122.851 22.0922 123.425 22.1915 123.956 22.3902C124.491 22.5849 124.957 22.8788 125.355 23.2722C125.756 23.6655 126.068 24.1602 126.291 24.7563C126.515 25.3484 126.626 26.0418 126.626 26.8366V27.5482H118.737V25.9424H124.187C124.187 25.5694 124.106 25.2389 123.944 24.951C123.781 24.6631 123.556 24.438 123.268 24.2758C122.985 24.1096 122.654 24.0264 122.277 24.0264C121.884 24.0264 121.535 24.1177 121.231 24.3001C120.931 24.4786 120.696 24.7198 120.525 25.024C120.355 25.324 120.268 25.6586 120.264 26.0276V27.5543C120.264 28.0166 120.349 28.416 120.519 28.7526C120.694 29.0891 120.939 29.3487 121.255 29.5311C121.571 29.7136 121.947 29.8049 122.38 29.8049C122.668 29.8049 122.932 29.7643 123.171 29.6832C123.41 29.6021 123.615 29.4805 123.785 29.3183C123.956 29.1561 124.086 28.9574 124.175 28.7222L126.571 28.8803C126.45 29.4561 126.2 29.959 125.823 30.3888C125.45 30.8146 124.968 31.1471 124.375 31.3863C123.788 31.6215 123.108 31.7391 122.338 31.7391ZM132.575 31.7391C131.614 31.7391 130.787 31.5445 130.093 31.1552C129.404 30.7619 128.873 30.2063 128.499 29.4886C128.126 28.7668 127.94 27.9132 127.94 26.9278C127.94 25.9668 128.126 25.1233 128.499 24.3975C128.873 23.6716 129.398 23.1059 130.075 22.7004C130.756 22.2949 131.555 22.0922 132.471 22.0922C133.088 22.0922 133.662 22.1915 134.193 22.3902C134.728 22.5849 135.194 22.8788 135.592 23.2722C135.993 23.6655 136.305 24.1602 136.528 24.7563C136.751 25.3484 136.863 26.0418 136.863 26.8366V27.5482H128.974V25.9424H134.424C134.424 25.5694 134.343 25.2389 134.181 24.951C134.018 24.6631 133.793 24.438 133.505 24.2758C133.222 24.1096 132.891 24.0264 132.514 24.0264C132.121 24.0264 131.772 24.1177 131.468 24.3001C131.168 24.4786 130.932 24.7198 130.762 25.024C130.592 25.324 130.505 25.6586 130.501 26.0276V27.5543C130.501 28.0166 130.586 28.416 130.756 28.7526C130.93 29.0891 131.176 29.3487 131.492 29.5311C131.808 29.7136 132.183 29.8049 132.617 29.8049C132.905 29.8049 133.169 29.7643 133.408 29.6832C133.647 29.6021 133.852 29.4805 134.022 29.3183C134.193 29.1561 134.323 28.9574 134.412 28.7222L136.808 28.8803C136.687 29.4561 136.437 29.959 136.06 30.3888C135.687 30.8146 135.204 31.1471 134.612 31.3863C134.024 31.6215 133.345 31.7391 132.575 31.7391Z" fill="black"/>
</svg>
