<svg width="20" height="24" viewBox="0 0 20 24" fill="none" xmlns="http://www.w3.org/2000/svg">
<g clip-path="url(#clip0_631_4020)">
<path d="M9.77579 6.89067C7.07847 6.89067 4.9028 9.19517 4.9028 12.0522C4.9028 14.9092 7.07847 17.2137 9.77579 17.2137C12.4731 17.2137 14.6488 14.9092 14.6488 12.0522C14.6488 9.19517 12.4731 6.89067 9.77579 6.89067ZM9.77579 15.4079C8.03271 15.4079 6.60771 13.903 6.60771 12.0522C6.60771 10.2014 8.02847 8.69653 9.77579 8.69653C11.5231 8.69653 12.9439 10.2014 12.9439 12.0522C12.9439 13.903 11.5189 15.4079 9.77579 15.4079ZM15.9847 6.67954C15.9847 7.34888 15.4758 7.88345 14.8481 7.88345C14.2162 7.88345 13.7115 7.34438 13.7115 6.67954C13.7115 6.0147 14.2204 5.47563 14.8481 5.47563C15.4758 5.47563 15.9847 6.0147 15.9847 6.67954ZM19.2122 7.90142C19.1401 6.28872 18.7923 4.8602 17.6769 3.68325C16.5658 2.5063 15.2171 2.13794 13.6945 2.05708C12.1253 1.96274 7.422 1.96274 5.8528 2.05708C4.3345 2.13345 2.98584 2.50181 1.87044 3.67876C0.755035 4.85571 0.411508 6.28423 0.335168 7.89692C0.246106 9.55903 0.246106 14.5409 0.335168 16.203C0.407267 17.8157 0.755035 19.2442 1.87044 20.4211C2.98584 21.5981 4.33026 21.9665 5.8528 22.0473C7.422 22.1416 12.1253 22.1416 13.6945 22.0473C15.2171 21.9709 16.5658 21.6026 17.6769 20.4211C18.7881 19.2442 19.1358 17.8157 19.2122 16.203C19.3012 14.5409 19.3012 9.56353 19.2122 7.90142ZM17.1849 17.9864C16.8541 18.8668 16.2137 19.5452 15.3783 19.9C14.1271 20.4256 11.1584 20.3043 9.77579 20.3043C8.3932 20.3043 5.42021 20.4211 4.17334 19.9C3.34209 19.5497 2.70169 18.8713 2.36664 17.9864C1.87044 16.6612 1.98495 13.5167 1.98495 12.0522C1.98495 10.5877 1.87468 7.43872 2.36664 6.11802C2.69745 5.23755 3.33785 4.55923 4.17334 4.20435C5.42445 3.67876 8.3932 3.80005 9.77579 3.80005C11.1584 3.80005 14.1314 3.68325 15.3783 4.20435C16.2095 4.55474 16.8499 5.23306 17.1849 6.11802C17.6812 7.44321 17.5666 10.5877 17.5666 12.0522C17.5666 13.5167 17.6812 16.6657 17.1849 17.9864Z" fill="black"/>
</g>
<defs>
<clipPath id="clip0_631_4020">
<rect width="19" height="23" fill="white" transform="translate(0.271729 0.556641)"/>
</clipPath>
</defs>
</svg>
