<?xml version="1.0" encoding="UTF-8"?>
<!DOCTYPE svg PUBLIC "-//W3C//DTD SVG 1.1//EN" "http://www.w3.org/Graphics/SVG/1.1/DTD/svg11.dtd">
<svg xmlns="http://www.w3.org/2000/svg" version="1.1" width="20px" height="22px" style="shape-rendering:geometricPrecision; text-rendering:geometricPrecision; image-rendering:optimizeQuality; fill-rule:evenodd; clip-rule:evenodd" xmlns:xlink="http://www.w3.org/1999/xlink">
<g><path style="opacity:0.653" fill="#fefffe" d="M 19.5,4.5 C 19.5,8.5 19.5,12.5 19.5,16.5C 18.0857,18.918 16.0857,20.5847 13.5,21.5C 10.8333,21.5 8.16667,21.5 5.5,21.5C 2.92933,21.0238 0.929326,19.6905 -0.5,17.5C -0.5,12.8333 -0.5,8.16667 -0.5,3.5C 0.267389,2.82803 0.934056,1.9947 1.5,1C 6.5,0.333333 11.5,0.333333 16.5,1C 17.6364,2.14508 18.6364,3.31174 19.5,4.5 Z M 4.5,2.5 C 7.8499,2.33499 11.1832,2.50166 14.5,3C 13.2561,5.30337 11.5894,5.80337 9.5,4.5C 1.67664,8.4058 1.50998,12.4058 9,16.5C 14.2589,15.1091 15.7589,11.9424 13.5,7C 14.6667,6.5 15.5,5.66667 16,4.5C 19.5231,16.9775 15.1898,21.3108 3,17.5C 0.639557,12.0711 1.13956,7.07106 4.5,2.5 Z M 8.5,7.5 C 10.4841,7.484 11.4841,8.484 11.5,10.5C 9.98896,14.435 8.3223,14.435 6.5,10.5C 7.19251,9.48224 7.85917,8.48224 8.5,7.5 Z"/></g>
</svg>
