<?xml version="1.0" encoding="UTF-8"?>
<svg version="1.1" xmlns="http://www.w3.org/2000/svg" width="21" height="21">
<path d="M0 0 C1.32229189 2.64458379 1.09677194 4.67761301 1.0625 7.625 C1.05347656 8.62789062 1.04445313 9.63078125 1.03515625 10.6640625 C1.02355469 11.43492188 1.01195312 12.20578125 1 13 C-0.65 13 -2.3 13 -4 13 C-4.33 10.03 -4.66 7.06 -5 4 C-5.66 4 -6.32 4 -7 4 C-7.33 6.97 -7.66 9.94 -8 13 C-9.65 13 -11.3 13 -13 13 C-13 8.38 -13 3.76 -13 -1 C-8.00359673 -1.99928065 -4.68718491 -2.12039317 0 0 Z " fill="#FFFFFF" transform="translate(20,8)"/>
<path d="M0 0 C1.65 0 3.3 0 5 0 C5 4.62 5 9.24 5 14 C3.35 14 1.7 14 0 14 C0 9.38 0 4.76 0 0 Z " fill="#FFFFFF" transform="translate(0,7)"/>
<path d="M0 0 C1.98 0.495 1.98 0.495 4 1 C3.67 2.65 3.34 4.3 3 6 C1.68 5.67 0.36 5.34 -1 5 C-0.67 3.35 -0.34 1.7 0 0 Z " fill="#FFFFFF" transform="translate(1,0)"/>
</svg>
