<?xml version="1.0" encoding="UTF-8"?>
<!DOCTYPE svg PUBLIC "-//W3C//DTD SVG 1.1//EN" "http://www.w3.org/Graphics/SVG/1.1/DTD/svg11.dtd">
<svg xmlns="http://www.w3.org/2000/svg" version="1.1" width="21px" height="21px" style="shape-rendering:geometricPrecision; text-rendering:geometricPrecision; image-rendering:optimizeQuality; fill-rule:evenodd; clip-rule:evenodd" xmlns:xlink="http://www.w3.org/1999/xlink">
<g><path style="opacity:0.695" fill="#fefffe" d="M 0.5,-0.5 C 1.5,-0.5 2.5,-0.5 3.5,-0.5C 5.59512,4.27117 4.26179,5.93784 -0.5,4.5C -0.5,3.16667 -0.5,1.83333 -0.5,0.5C 0.166667,0.5 0.5,0.166667 0.5,-0.5 Z"/></g>
<g><path style="opacity:0.795" fill="#fefffe" d="M 20.5,9.5 C 20.5,13.1667 20.5,16.8333 20.5,20.5C 18.8333,20.5 17.1667,20.5 15.5,20.5C 15.6646,17.4816 15.498,14.4816 15,11.5C 14,10.1667 13,10.1667 12,11.5C 11.502,14.4816 11.3354,17.4816 11.5,20.5C 9.83333,20.5 8.16667,20.5 6.5,20.5C 6.5,15.8333 6.5,11.1667 6.5,6.5C 9.24919,6.72609 11.9159,6.39276 14.5,5.5C 17.225,5.93703 19.225,7.27036 20.5,9.5 Z"/></g>
<g><path style="opacity:0.789" fill="#fefffe" d="M -0.5,6.5 C 1.16667,6.5 2.83333,6.5 4.5,6.5C 4.5,11.1667 4.5,15.8333 4.5,20.5C 2.83333,20.5 1.16667,20.5 -0.5,20.5C -0.5,15.8333 -0.5,11.1667 -0.5,6.5 Z"/></g>
</svg>
