<?xml version="1.0" encoding="UTF-8"?>
<!DOCTYPE svg PUBLIC "-//W3C//DTD SVG 1.1//EN" "http://www.w3.org/Graphics/SVG/1.1/DTD/svg11.dtd">
<svg xmlns="http://www.w3.org/2000/svg" version="1.1" width="18px" height="16px" style="shape-rendering:geometricPrecision; text-rendering:geometricPrecision; image-rendering:optimizeQuality; fill-rule:evenodd; clip-rule:evenodd" xmlns:xlink="http://www.w3.org/1999/xlink">
<g><path style="opacity:0.621" fill="#fefffe" d="M -0.5,-0.5 C 1.5,-0.5 3.5,-0.5 5.5,-0.5C 6.45773,0.961599 7.62439,2.29493 9,3.5C 10.3756,2.29493 11.5423,0.961599 12.5,-0.5C 13.5,-0.5 14.5,-0.5 15.5,-0.5C 14.2222,1.7991 12.8889,4.13243 11.5,6.5C 13.624,9.27941 15.2907,12.2794 16.5,15.5C 14.5,15.5 12.5,15.5 10.5,15.5C 8.40967,10.3421 6.07634,10.3421 3.5,15.5C 2.16667,15.5 0.833333,15.5 -0.5,15.5C -0.5,15.1667 -0.5,14.8333 -0.5,14.5C 2.00158,12.8304 4.00158,10.6637 5.5,8C 4.00158,5.33627 2.00158,3.1696 -0.5,1.5C -0.5,0.833333 -0.5,0.166667 -0.5,-0.5 Z"/></g>
</svg>
