<?xml version="1.0" encoding="UTF-8"?>
<svg version="1.1" xmlns="http://www.w3.org/2000/svg" width="20" height="22">
<path d="M0 0 C2.58238298 -0.33214891 4.85750482 -0.46419797 7.4375 -0.4375 C8.11876953 -0.45748047 8.80003906 -0.47746094 9.50195312 -0.49804688 C12.62785013 -0.49498527 14.52414216 -0.4033825 16.94921875 1.65234375 C18.26033562 4.58164204 18.39904279 6.79429532 18.375 10 C18.38273437 11.03125 18.39046875 12.0625 18.3984375 13.125 C17.95236814 16.34369654 17.26449533 17.70361037 15 20 C10.26358158 21.57880614 5.79718466 21.5353316 1.0625 20.125 C-1 19 -1 19 -2 17 C-2.1230891 14.68993256 -2.1755634 12.37581364 -2.1875 10.0625 C-2.20167969 8.81597656 -2.21585937 7.56945312 -2.23046875 6.28515625 C-2 3 -2 3 0 0 Z M1 3 C-0.4700271 7.4100813 -0.91036877 11.97188116 1.01171875 16.25390625 C1.33785156 16.83011719 1.66398438 17.40632813 2 18 C3.79133978 18.05391993 5.58313899 18.09275571 7.375 18.125 C8.37273438 18.14820312 9.37046875 18.17140625 10.3984375 18.1953125 C13.16262173 18.27216848 13.16262173 18.27216848 15 16 C15.24339551 13.10116917 15.24339551 13.10116917 15.125 9.875 C15.10695313 8.77929688 15.08890625 7.68359375 15.0703125 6.5546875 C15.04710937 5.71164062 15.02390625 4.86859375 15 4 C14.67 4.66 14.34 5.32 14 6 C13.01 6.495 13.01 6.495 12 7 C12.061875 7.94875 12.12375 8.8975 12.1875 9.875 C12.125625 10.90625 12.06375 11.9375 12 13 C9 15 9 15 6.3125 14.625 C5.549375 14.41875 4.78625 14.2125 4 14 C3.25 11.75 3.25 11.75 3 9 C5.59323342 5.40936912 7.75193223 4.68887585 12 4 C12.33 3.34 12.66 2.68 13 2 C11.37509046 1.97301811 9.75005367 1.95361243 8.125 1.9375 C7.22007813 1.92589844 6.31515625 1.91429687 5.3828125 1.90234375 C2.9831415 1.83750743 2.9831415 1.83750743 1 3 Z M7 7 C5.89163577 8.88316159 5.89163577 8.88316159 5 11 C5.33 11.66 5.66 12.32 6 13 C7.32 12.67 8.64 12.34 10 12 C9.67 10.35 9.34 8.7 9 7 C8.34 7 7.68 7 7 7 Z " fill="#FFFFFF" transform="translate(2,1)"/>
</svg>
