<?xml version="1.0" encoding="UTF-8"?>
<svg version="1.1" xmlns="http://www.w3.org/2000/svg" width="18" height="16">
<path d="M0 0 C5.41538462 -0.36923077 5.41538462 -0.36923077 8.375 1.5 C8.91125 1.995 9.4475 2.49 10 3 C10.6496875 2.2575 10.6496875 2.2575 11.3125 1.5 C13 -0 13 -0 16 0 C15.690625 0.5775 15.38125 1.155 15.0625 1.75 C13.568611 4.75518351 13.568611 4.75518351 13 8 C14.26660533 10.04291182 15.59886384 12.04690112 17 14 C17 14.66 17 15.32 17 16 C14.125 16.1875 14.125 16.1875 11 16 C10.34 15.01 9.68 14.02 9 13 C8.443125 13.309375 7.88625 13.61875 7.3125 13.9375 C4.87459567 15.05761821 2.63775814 15.56037364 0 16 C1.65 13.69 3.3 11.38 5 9 C4.360625 8.071875 3.72125 7.14375 3.0625 6.1875 C1 3 1 3 0 0 Z " fill="#FFFFFF" transform="translate(0,0)"/>
</svg>
